# xmcd
# Copyright (C) 1995-1998 Ti Kan
#
# Track frame offsets:
#       150
#       11052
#       24945
#       36467
#       49820
#       61627
#       75867
#       86732
#       91205
#       106885
#       118280
#       129855
#       144595
#       157670
#
# Disc length: 2252 seconds
#
# Revision: 0
# Processed by: cddbd v1.5.2PL0 Copyright (c) Steve Scherf et al.
# Submitted via: CD-Import v1.0
#
DISCID=a108ca0e
DTITLE=Various Artist - Action Tv-Themes 3
DYEAR=1900
DGENRE=
TTITLE0=Miami Vice
TTITLE1=Remington Steele
TTITLE2=Rockford - Anruf Genügt
TTITLE3=Manusco Fbi
TTITLE4=Macgyver
TTITLE5=Cagney Und Lacey
TTITLE6=Magnum
TTITLE7=Quincy
TTITLE8=Hunter
TTITLE9=Ein Duke Kommt Selten Allein: Good Ol' Boys
TTITLE10=Spenser
TTITLE11=Tatort
TTITLE12=The Young Riders
TTITLE13=Stingray
EXTD=
EXTT0=
EXTT1=
EXTT2=
EXTT3=
EXTT4=
EXTT5=
EXTT6=
EXTT7=
EXTT8=
EXTT9=
EXTT10=
EXTT11=
EXTT12=
EXTT13=
PLAYORDER=
